<svg viewBox="0 0 512 511" fill="none" xmlns="http://www.w3.org/2000/svg">
  <path fill-rule="evenodd" clip-rule="evenodd" d="M256 511c141.385 0 256-114.615 256-256S397.385-1 256-1 0 113.615 0 255s114.615 256 256 256m92.39-405.308-199.272 113.79a9.943 9.943 0 0 0-3.684 13.619l30.821 53.383a9.95 9.95 0 0 1 .992 7.576l-26.754 98.908c-2.321 8.579 6.939 15.695 14.676 11.277l203.014-115.927c5.284-3.017 6.649-10.003 2.889-14.793l-26.886-34.26a9.96 9.96 0 0 1-1.97-7.942l21.033-115.163c1.526-8.355-7.466-14.69-14.859-10.468" fill="currentColor"/>
</svg>
