<svg viewBox="0 0 24 24" fill="none" xmlns="http://www.w3.org/2000/svg" width="24" height="24"><path d="M22.501 12.232c0-.862-.071-1.492-.226-2.146h-10.06v3.896h5.905c-.119.968-.762 2.427-2.19 3.406l-.02.131 3.18 2.415.22.022c2.024-1.832 3.19-4.527 3.19-7.723" fill="#4285F4"/><path d="M12.215 22.5c2.893 0 5.321-.934 7.095-2.543l-3.38-2.567c-.905.619-2.119 1.05-3.715 1.05a6.435 6.435 0 0 1-6.095-4.362l-.125.011-3.308 2.508-.044.118c1.762 3.428 5.382 5.785 9.572 5.785" fill="#34A853"/><path d="M6.12 14.077A6.4 6.4 0 0 1 5.763 12c0-.723.131-1.423.345-2.077l-.006-.139-3.35-2.549-.109.052A10.35 10.35 0 0 0 1.5 12c0 1.692.417 3.29 1.143 4.714z" fill="#FBBC05"/><path d="M12.215 5.56c2.012 0 3.369.852 4.143 1.564l3.024-2.893C17.524 2.538 15.108 1.5 12.215 1.5c-4.19 0-7.81 2.357-9.572 5.786l3.465 2.637a6.465 6.465 0 0 1 6.106-4.364" fill="#EB4335"/></svg>
